<svg viewBox="0 0 169 43" xmlns="http://www.w3.org/2000/svg" data-logo="logo">
        <g transform="translate(0, 1) rotate(0)" id="logogram" style="opacity: 1;"><path fill="#2B7FFF" d="M0.603516 15.43V31.43H5.60352C6.12878 31.43 6.64893 31.5334 7.13428 31.7345C7.61951 31.9355 8.06055 32.2301 8.43188 32.6016C8.80334 32.973 9.09802 33.414 9.29907 33.8993C9.5 34.3846 9.60352 34.9047 9.60352 35.43V40.43H21.6035L36.6035 25.43V9.42999H31.6035C31.0782 9.42999 30.5581 9.32654 30.0728 9.12552C29.5875 8.9245 29.1465 8.62985 28.7751 8.25842C28.4037 7.88699 28.109 7.44601 27.908 6.96072C27.707 6.47543 27.6035 5.95529 27.6035 5.42999V0.429993H15.6035L0.603516 15.43ZM17.6035 30.43H10.6035V19.43L19.6035 10.43H26.6035V21.43L17.6035 30.43Z" clip-rule="evenodd" fill-rule="evenodd"></path></g>
        <g transform="translate(43, 9)" id="logotype" style="opacity: 1;"><path d="M23.82 0.85L28.86 0.85L28.86 23.07Q28.86 25 26.93 25L26.93 25L23.99 25Q23.12 25 22.66 24.60Q22.21 24.20 21.82 23.39L21.82 23.39L15.14 10.72Q14.72 9.91 14.31 8.93Q13.91 7.95 13.63 7.04L13.63 7.04L13.25 7.04Q13.35 7.99 13.42 8.95Q13.49 9.91 13.49 10.86L13.49 10.86L13.49 25L8.41 25L8.41 2.77Q8.41 0.85 10.38 0.85L10.38 0.85L13.28 0.85Q14.12 0.85 14.56 1.25Q15.00 1.65 15.42 2.46L15.42 2.46L21.89 14.74Q22.31 15.55 22.77 16.53Q23.22 17.51 23.64 18.56L23.64 18.56L24.06 18.56Q23.96 17.51 23.90 16.51Q23.85 15.51 23.85 14.53L23.85 14.53L23.82 0.85ZM40.72 7.25L40.72 7.25Q43.98 7.25 45.94 8.15Q47.90 9.04 48.75 11.03Q49.61 13.03 49.61 16.39L49.61 16.39Q49.61 19.68 48.75 21.68Q47.90 23.67 45.94 24.55Q43.98 25.42 40.72 25.42L40.72 25.42Q37.50 25.42 35.52 24.55Q33.55 23.67 32.67 21.68Q31.80 19.68 31.80 16.39L31.80 16.39Q31.80 13.03 32.67 11.03Q33.55 9.04 35.52 8.15Q37.50 7.25 40.72 7.25ZM40.72 11.03L40.72 11.03Q39.39 11.03 38.62 11.49Q37.85 11.94 37.54 13.10Q37.22 14.25 37.22 16.39L37.22 16.39Q37.22 18.49 37.54 19.64Q37.85 20.80 38.62 21.24Q39.39 21.68 40.72 21.68L40.72 21.68Q42.05 21.68 42.82 21.24Q43.59 20.80 43.91 19.64Q44.22 18.49 44.22 16.39L44.22 16.39Q44.22 14.25 43.91 13.10Q43.59 11.94 42.82 11.49Q42.05 11.03 40.72 11.03ZM64.20 7.71L69.70 7.71L64.00 23.77Q63.79 24.34 63.35 24.67Q62.91 25 62.32 25L62.32 25L57.80 25Q57.21 25 56.77 24.67Q56.33 24.34 56.12 23.77L56.12 23.77L50.41 7.71L55.91 7.71L59.09 18.52Q59.31 19.29 59.48 20.10Q59.66 20.91 59.83 21.64L59.83 21.64L60.29 21.64Q60.50 20.87 60.69 20.08Q60.88 19.29 61.09 18.52L61.09 18.52L64.20 7.71ZM79.40 7.25L79.40 7.25Q83.77 7.25 85.68 8.74Q87.59 10.23 87.59 13.17L87.59 13.17Q87.62 15.55 86.40 16.72Q85.17 17.89 82.16 17.89L82.16 17.89L72.50 17.89L72.50 14.99L80.73 14.99Q81.92 14.99 82.25 14.48Q82.58 13.97 82.58 13.06L82.58 13.06Q82.55 11.84 81.86 11.37Q81.18 10.89 79.57 10.89L79.57 10.89Q78.14 10.89 77.33 11.28Q76.53 11.66 76.21 12.75Q75.90 13.83 75.90 15.90L75.90 15.90Q75.90 18.07 76.28 19.24Q76.67 20.41 77.59 20.87Q78.52 21.32 80.17 21.32L80.17 21.32Q81.36 21.32 83.12 21.24Q84.89 21.15 86.68 20.94L86.68 20.94L87.17 24.13Q86.15 24.61 84.86 24.89Q83.56 25.18 82.20 25.30Q80.83 25.42 79.57 25.42L79.57 25.42Q76.28 25.42 74.27 24.46Q72.26 23.50 71.36 21.50Q70.47 19.50 70.47 16.39L70.47 16.39Q70.47 12.99 71.38 11.00Q72.29 9.00 74.25 8.13Q76.21 7.25 79.40 7.25ZM101.83 7.71L107.08 7.71L102.08 16.14L107.47 25L102.22 25L97.11 16.14L101.83 7.71ZM88.70 7.71L93.95 7.71L98.68 16.14L93.61 25L88.32 25L93.71 16.14L88.70 7.71ZM95.18 14.46L100.64 14.46L100.64 17.68L95.18 17.68L95.18 14.46ZM118.17 7.25L118.17 7.25Q120.34 7.25 121.85 7.83Q123.36 8.41 124.14 9.79Q124.93 11.17 124.93 13.59L124.93 13.59L124.93 25L120.80 25L120.06 21.25L119.72 20.73L119.72 13.55Q119.72 12.33 119.14 11.77Q118.56 11.21 116.95 11.21L116.95 11.21Q115.62 11.21 113.63 11.30Q111.63 11.38 109.53 11.52L109.53 11.52L109.04 8.09Q110.30 7.85 111.94 7.67Q113.59 7.50 115.23 7.38Q116.88 7.25 118.17 7.25ZM113.45 14.36L122.80 14.36L122.76 17.27L115.06 17.30Q114.11 17.30 113.71 17.75Q113.31 18.21 113.31 18.98L113.31 18.98L113.31 19.82Q113.31 20.70 113.80 21.17Q114.29 21.64 115.38 21.64L115.38 21.64Q116.28 21.64 117.35 21.25Q118.42 20.87 119.47 20.17Q120.52 19.47 121.33 18.52L121.33 18.52L121.33 20.77Q121.01 21.29 120.40 22.08Q119.78 22.86 118.84 23.62Q117.89 24.37 116.63 24.89Q115.38 25.42 113.77 25.42L113.77 25.42Q112.19 25.42 110.93 24.86Q109.67 24.30 108.94 23.21Q108.20 22.13 108.20 20.52L108.20 20.52L108.20 18.73Q108.20 16.67 109.60 15.51Q111 14.36 113.45 14.36L113.45 14.36Z" fill="#2b7fff"></path></g>
        
      </svg>